<svg width="20" height="20" viewBox="0 0 20 20" fill="none" xmlns="http://www.w3.org/2000/svg">
<path d="M10.0002 17.2918C8.3985 17.2897 6.86305 16.6524 5.7305 15.5198C4.59794 14.3872 3.9607 12.8518 3.9585 11.2502C3.9585 11.0844 4.02435 10.9254 4.14155 10.8082C4.25876 10.691 4.41774 10.6252 4.5835 10.6252C4.74925 10.6252 4.90823 10.691 5.02544 10.8082C5.14265 10.9254 5.2085 11.0844 5.2085 11.2502C5.2085 12.1978 5.48952 13.1242 6.01604 13.9122C6.54255 14.7002 7.2909 15.3144 8.16647 15.6771C9.042 16.0397 10.0055 16.1347 10.935 15.9497C11.8645 15.7649 12.7182 15.3085 13.3884 14.6384C14.0585 13.9682 14.5149 13.1145 14.6997 12.185C14.8847 11.2555 14.7897 10.292 14.4271 9.4165C14.0644 8.54091 13.4502 7.79255 12.6622 7.26604C11.8742 6.73952 10.9478 6.4585 10.0002 6.4585H7.91683C7.75107 6.4585 7.5921 6.39265 7.47489 6.27544C7.35768 6.15823 7.29183 5.99925 7.29183 5.8335C7.29183 5.66774 7.35768 5.50876 7.47489 5.39155C7.5921 5.27435 7.75107 5.2085 7.91683 5.2085H10.0002C11.6025 5.2085 13.1392 5.84503 14.2722 6.97806C15.4053 8.11109 16.0418 9.64783 16.0418 11.2502C16.0418 12.8525 15.4053 14.3892 14.2722 15.5222C13.1392 16.6553 11.6025 17.2918 10.0002 17.2918Z" fill="#C3C3C3"/>
<path d="M9.99993 8.95844C9.91785 8.95885 9.83643 8.94285 9.7606 8.91135C9.68476 8.87985 9.61601 8.83352 9.55826 8.7751L7.05827 6.27513C6.94123 6.15794 6.87549 5.99909 6.87549 5.83346C6.87549 5.66784 6.94123 5.50899 7.05827 5.39179L9.55826 2.89179C9.61551 2.83039 9.68451 2.78114 9.76118 2.74698C9.83785 2.71282 9.9206 2.69445 10.0045 2.69297C10.0884 2.69149 10.1718 2.70693 10.2496 2.73836C10.3274 2.76979 10.3981 2.81658 10.4574 2.87593C10.5168 2.93528 10.5636 3.00598 10.595 3.08379C10.6265 3.16162 10.6419 3.24498 10.6404 3.32889C10.6389 3.41282 10.6206 3.49558 10.5864 3.57224C10.5523 3.64891 10.503 3.71791 10.4416 3.77513L8.38326 5.83346L10.4416 7.89179C10.5587 8.00899 10.6244 8.16784 10.6244 8.33344C10.6244 8.4991 10.5587 8.65794 10.4416 8.7751C10.3839 8.83352 10.3151 8.87985 10.2393 8.91135C10.1634 8.94285 10.0821 8.95885 9.99993 8.95844Z" fill="#C3C3C3"/>
</svg>
